<?xml version="1.0" encoding="iso-8859-1"?>
<!-- Generator: Adobe Illustrator 19.0.0, SVG Export Plug-In . SVG Version: 6.00 Build 0)  -->
<svg version="1.1" id="Layer_1" xmlns="http://www.w3.org/2000/svg" xmlns:xlink="http://www.w3.org/1999/xlink" x="0px" y="0px"
	viewBox="0 0 512 512" style="enable-background:new 0 0 512 512;" xml:space="preserve">
<g>
	<rect x="10.199" y="420.85" style="fill:#FBB03B;" width="491.602" height="38.002"/>
	<path style="fill:#FBB03B;" d="M412.553,93.947H99.447c0,49.291-39.958,89.248-89.248,89.248l0,0h491.602l0,0
		C452.51,183.196,412.553,143.238,412.553,93.947z"/>
	<path style="fill:#FBB03B;" d="M401.9,53.15H110.1c0,32.67-26.484,59.155-59.155,59.155l0,0h410.11l0,0
		C428.385,112.305,401.9,85.821,401.9,53.15z"/>
	<rect x="38.757" y="385.877" style="fill:#FBB03B;" width="434.486" height="34.973"/>
</g>
<g>
	<polygon style="fill:#F15A24;" points="65.872,385.874 108.025,385.874 117.605,183.196 56.291,183.196 	"/>
	<polygon style="fill:#F15A24;" points="403.975,385.874 446.128,385.874 455.709,183.196 394.395,183.196 	"/>
</g>
<path d="M501.801,410.647h-18.359v-24.774c0-5.632-4.567-10.199-10.199-10.199h-16.422l8.616-182.279h36.363
	c5.632,0,10.199-4.567,10.199-10.199s-4.567-10.199-10.199-10.199c-33.229,0-62.154-20.286-73.745-50.492h33
	c5.632,0,10.199-4.567,10.199-10.199c0-5.632-4.567-10.199-10.199-10.199c-26.994,0-48.956-21.961-48.956-48.956
	c0-5.632-4.567-10.199-10.199-10.199H110.1c-5.632,0-10.199,4.567-10.199,10.199c0,26.995-21.962,48.956-48.956,48.956
	c-5.632,0-10.199,4.567-10.199,10.199c0,5.632,4.567,10.199,10.199,10.199h32.999c-11.59,30.206-40.514,50.492-73.744,50.492
	C4.567,172.997,0,177.564,0,183.196s4.567,10.199,10.199,10.199h36.363l8.616,182.279H38.757c-5.632,0-10.199,4.567-10.199,10.199
	v24.774H10.199C4.567,410.647,0,415.215,0,420.847v38.003c0,5.632,4.567,10.199,10.199,10.199h491.602
	c5.632,0,10.199-4.567,10.199-10.199v-38.003C512,415.214,507.433,410.647,501.801,410.647z M436.4,375.674h-22.697l-8.616-182.279
	h39.93L436.4,375.674z M384.666,193.395l8.616,182.279H118.718l8.616-182.279L384.666,193.395L384.666,193.395z M119.552,63.349
	h272.896c2.223,15.019,9.276,28.481,19.527,38.757H100.025C110.276,91.831,117.329,78.369,119.552,63.349z M70.547,172.997
	c0.652-0.497,1.295-1.002,1.934-1.516c15.687-12.615,27.227-29.839,32.975-48.977h301.087c5.748,19.137,17.289,36.36,32.975,48.976
	c0.639,0.514,1.284,1.02,1.935,1.517H70.547z M66.983,193.395h39.93l-8.616,182.279H75.6L66.983,193.395z M463.044,396.073v14.575
	H48.956v-14.575H463.044z M491.602,431.046v17.605H20.398v-17.605H491.602z"/>
<path d="M154.008,164.207H261.1c5.632,0,10.199-4.567,10.199-10.199s-4.567-10.199-10.199-10.199H154.008
	c-5.632,0-10.199,4.567-10.199,10.199S148.376,164.207,154.008,164.207z"/>
<path d="M132.59,154.008c0-5.632-4.567-10.199-10.199-10.199h-5.1c-5.632,0-10.199,4.567-10.199,10.199s4.567,10.199,10.199,10.199
	h5.1C128.022,164.207,132.59,159.64,132.59,154.008z"/>
<g>
</g>
<g>
</g>
<g>
</g>
<g>
</g>
<g>
</g>
<g>
</g>
<g>
</g>
<g>
</g>
<g>
</g>
<g>
</g>
<g>
</g>
<g>
</g>
<g>
</g>
<g>
</g>
<g>
</g>
</svg>
